Coordinates
version=1
nRows=11
nColumns=40
inDegrees=yes

Units are S.I. units (second, meters, Newtons, ...)
Angles are in degrees.

endheader
time	pelvis_tilt	pelvis_list	pelvis_rotation	pelvis_tx	pelvis_ty	pelvis_tz	hip_flexion_r	hip_adduction_r	hip_rotation_r	knee_angle_r	knee_angle_r_beta	ankle_angle_r	subtalar_angle_r	mtp_angle_r	hip_flexion_l	hip_adduction_l	hip_rotation_l	knee_angle_l	knee_angle_l_beta	ankle_angle_l	subtalar_angle_l	mtp_angle_l	lumbar_extension	lumbar_bending	lumbar_rotation	arm_flex_r	arm_add_r	arm_rot_r	elbow_flex_r	pro_sup_r	wrist_flex_r	wrist_dev_r	arm_flex_l	arm_add_l	arm_rot_l	elbow_flex_l	pro_sup_l	wrist_flex_l	wrist_dev_l
      2.08000000	      4.99365454	     -0.73566256	     -2.33454027	      0.58068677	      0.89553002	      1.01357231	     21.72783771	     -1.14039657	    -11.16050443	    -36.86530059	     -0.64342088	      1.59165441	     -8.12583383	      9.14660453	     -8.18358717	     -3.41514406	      9.16240944	    -13.71589989	     -0.23938761	     13.06146162	     -2.82640809	     -5.45628504	    -10.84847195	      3.35479549	     -2.35932355	      3.20291845	     -9.31073530	     12.23019218	     13.90803217	     89.95437384	      0.00000000	      0.00000000	     13.58174161	     11.39138144	    -18.86933491	     24.67972242	     89.95437384	      0.00000000	      0.00000000
      2.09000000	      4.67059436	     -0.33801249	     -2.38948943	      0.58902450	      0.89361772	      1.01336177	     22.64982860	     -1.56672059	    -12.04851272	    -34.86361754	     -0.60848492	      1.71151992	     -7.74374783	      9.01440677	     -8.48082768	     -3.87848103	      9.47977473	    -13.60148944	     -0.23739077	     13.33185659	     -2.90700571	     -5.46427686	    -10.49545700	      3.00624348	     -2.27532612	      2.57348980	     -9.37710709	     12.27869860	     13.62978713	     89.95437384	      0.00000000	      0.00000000	     14.21437556	     11.41928984	    -18.70122261	     25.27682815	     89.95437384	      0.00000000	      0.00000000
      2.10000000	      5.30939780	     -0.68643493	     -1.95399132	      0.59806727	      0.89356716	      1.01305702	     21.72074861	     -1.37412317	    -13.78017443	    -31.71845071	     -0.55359140	      1.24331966	     -5.29901941	      8.13407237	    -10.03851803	     -3.41882818	      9.59097325	    -13.21743790	     -0.23068781	     13.32226034	     -3.90381122	     -5.76256078	    -11.23166778	      3.49426075	     -2.67250499	      2.15375073	     -9.46208943	     12.36167007	     13.36537794	     89.95437384	      0.00000000	      0.00000000	     14.73150107	     11.47157761	    -18.20950930	     26.16383582	     89.95437384	      0.00000000	      0.00000000
      2.11000000	      5.19796564	     -0.64563114	     -1.76474640	      0.60640524	      0.89215857	      1.01289738	     21.99487414	     -1.46132259	    -15.18287125	    -29.22685385	     -0.51010483	      0.63514865	     -4.01263034	      7.42978243	    -10.46581191	     -3.40006725	      9.70143265	    -13.33843105	     -0.23279954	     13.59612623	     -4.33579405	     -6.04863338	    -11.16405533	      3.54499232	     -2.80583789	      1.71561964	     -9.46862495	     12.30979191	     12.95091524	     89.95437384	      0.00000000	      0.00000000	     15.25309304	     11.52670118	    -18.04205385	     26.94655980	     89.95437384	      0.00000000	      0.00000000
      2.12000000	      5.09973738	     -0.61666909	     -1.63982742	      0.61484280	      0.89080574	      1.01286310	     22.20170894	     -1.54406933	    -16.72146960	    -26.82334176	     -0.46815563	     -0.25504428	     -2.58961900	      6.41053488	    -10.95171785	     -3.37858468	      9.86404020	    -13.39821534	     -0.23384297	     13.81107790	     -4.78871862	     -6.32055521	    -11.10315187	      3.61141083	     -2.90164066	      1.32320269	     -9.47065596	     12.22829721	     12.48396606	     89.95437384	      0.00000000	      0.00000000	     15.74119198	     11.53646559	    -17.78454974	     27.67987584	     89.95437384	      0.00000000	      0.00000000
      2.13000000	      4.90533268	     -0.58048553	     -1.45146965	      0.62305982	      0.88932751	      1.01274855	     22.46870247	     -1.60406043	    -18.17834301	    -24.50566868	     -0.42770460	     -1.15981248	     -1.39039998	      5.92480513	    -11.20459539	     -3.35822534	      9.83991970	    -13.73213813	     -0.23967102	     14.11572901	     -4.88795754	     -6.41840826	    -10.98790591	      3.67251129	     -2.97541849	      0.93264998	     -9.47248096	     12.08982238	     12.05313910	     89.95437384	      0.00000000	      0.00000000	     16.22922632	     11.55773755	    -17.73016984	     28.44891948	     89.95437384	      0.00000000	      0.00000000
      2.14000000	      4.55809581	     -0.23663185	     -1.62921809	      0.63137172	      0.88750808	      1.01301689	     23.16256005	     -1.84115977	    -19.07023641	    -22.90610999	     -0.39978704	     -1.17348845	     -1.11485865	      5.88739807	    -11.40271594	     -3.78072399	     10.00579732	    -13.78281065	     -0.24055543	     14.30848344	     -4.92128227	     -6.44749422	    -10.64745792	      3.35058760	     -2.71008150	      0.51204819	     -9.45274408	     12.13487014	     11.56282446	     89.95437384	      0.00000000	      0.00000000	     16.71419616	     11.49745418	    -17.64059766	     29.00566739	     89.95437384	      0.00000000	      0.00000000
      2.15000000	      4.71447434	     -0.62228129	     -1.09029694	      0.64019274	      0.88686080	      1.01284413	     22.59367379	     -1.63649189	    -21.42132764	    -20.47716563	     -0.35739396	     -2.10388572	      2.34049254	      4.18580075	    -12.06792491	     -3.16130823	      9.99242790	    -14.07518435	     -0.24565831	     14.34776742	     -5.61481586	     -6.70437475	    -10.86775035	      3.88392104	     -3.22066436	      0.30468524	     -9.36637967	     11.65133616	     11.00144804	     89.95437384	      0.00000000	      0.00000000	     16.93040303	     11.49637533	    -17.07334415	     29.93671592	     89.95437384	      0.00000000	      0.00000000
      2.16000000	      4.51211759	     -0.66382641	     -0.81205194	      0.64878033	      0.88550672	      1.01286396	     22.75366877	     -1.66843767	    -23.22143928	    -18.77942738	     -0.32776284	     -3.38820355	      3.36677904	     -5.01548743	    -12.24020955	     -2.97281684	     10.06969087	    -14.51064102	     -0.25325846	     14.41796072	     -5.85763823	     -7.63353343	    -10.68458313	      4.03755264	     -3.40318486	      0.05606197	     -9.24567296	     10.90955948	     10.40038315	     89.95437384	      0.00000000	      0.00000000	     17.20253524	     11.50341467	    -16.99269843	     30.69199764	     89.95437384	      0.00000000	      0.00000000
      2.17000000	      4.29573214	     -0.82052599	     -0.56786320	      0.65737590	      0.88433031	      1.01301891	     22.86102207	     -1.37133418	    -24.22660200	    -17.33783457	     -0.30260230	     -3.48217623	      3.99261783	     -5.08910895	    -12.39244986	     -2.69462066	      9.88725154	    -14.96856508	     -0.26125074	     14.65540419	     -5.84083790	     -7.68330672	    -10.50959065	      4.29271671	     -3.56940688	     -0.18540490	     -9.22779291	     11.06784188	      9.91205452	     89.95437384	      0.00000000	      0.00000000	     17.41624660	     11.43881321	    -16.68142366	     31.39328696	     89.95437384	      0.00000000	      0.00000000
      2.18000000	      4.20505048	     -1.00604015	     -0.38319026	      0.66636625	      0.88341497	      1.01330696	     22.80365904	     -1.06449696	    -25.21615454	    -16.26890339	     -0.28394593	     -3.55072611	      4.85336985	     -5.27616604	    -12.73801205	     -2.37263815	      9.88765468	    -15.37801068	     -0.26839692	     14.76231837	     -5.95064007	     -7.74618831	    -10.44081096	      4.57993015	     -3.66998021	     -0.45170915	     -9.22010530	     11.27894145	      9.48678213	     89.95437384	      0.00000000	      0.00000000	     17.53503427	     11.34078738	    -16.28753579	     32.08803828	     89.95437384	      0.00000000	      0.00000000
